<svg width="48" height="48" viewBox="0 0 48 48" fill="none" xmlns="http://www.w3.org/2000/svg">
<path d="M18.9 35.95C18.6 35.95 18.3083 35.8917 18.025 35.775C17.7417 35.6583 17.4833 35.4833 17.25 35.25L8.2 26.2C7.73333 25.7333 7.5 25.1667 7.5 24.5C7.5 23.8333 7.73333 23.2667 8.2 22.8C8.66667 22.3333 9.225 22.1 9.875 22.1C10.525 22.1 11.1 22.3333 11.6 22.8L18.9 30.1L36.4 12.65C36.8667 12.1833 37.425 11.9417 38.075 11.925C38.725 11.9083 39.2833 12.15 39.75 12.65C40.2167 13.1167 40.45 13.6833 40.45 14.35C40.45 15.0167 40.2167 15.5833 39.75 16.05L20.55 35.25C20.3167 35.4833 20.0583 35.6583 19.775 35.775C19.4917 35.8917 19.2 35.95 18.9 35.95Z" fill="white"/>
</svg>
