<svg width="38" height="38" viewBox="0 0 38 38" fill="none" xmlns="http://www.w3.org/2000/svg">
<path d="M3.85 37.8C2.8925 37.8 2.04478 37.431 1.30685 36.6931C0.568947 35.9552 0.199997 35.1075 0.199997 34.15V3.85001C0.199997 2.89251 0.568947 2.04481 1.30685 1.30691C2.04478 0.568979 2.8925 0.200012 3.85 0.200012H28C28.5005 0.200012 28.9776 0.300729 29.4312 0.502162C29.8848 0.703629 30.2744 0.969579 30.6 1.30001L36.7 7.40001C37.0304 7.72561 37.2964 8.11521 37.4978 8.56881C37.6993 9.02241 37.8 9.49948 37.8 10V34.15C37.8 35.1075 37.431 35.9552 36.6931 36.6931C35.9552 37.431 35.1075 37.8 34.15 37.8H3.85ZM34.15 10.1111L27.8889 3.85001H3.85V34.15H34.15V10.1111ZM18.9912 31.1C20.5304 31.1 21.8417 30.5613 22.925 29.4838C24.0083 28.4064 24.55 27.0981 24.55 25.5589C24.55 24.0196 24.0113 22.7083 22.9338 21.625C21.8564 20.5417 20.548 20 19.0088 20C17.4696 20 16.1583 20.5387 15.075 21.6162C13.9917 22.6936 13.45 24.002 13.45 25.5412C13.45 27.0804 13.9887 28.3917 15.0662 29.475C16.1436 30.5583 17.452 31.1 18.9912 31.1ZM8.1 14.15H23.2C23.71 14.15 24.1375 13.9775 24.4825 13.6325C24.8275 13.2875 25 12.86 25 12.35V8.10001C25 7.59001 24.8275 7.16251 24.4825 6.81751C24.1375 6.47251 23.71 6.30001 23.2 6.30001H8.1C7.59 6.30001 7.1625 6.47251 6.8175 6.81751C6.4725 7.16251 6.3 7.59001 6.3 8.10001V12.35C6.3 12.86 6.4725 13.2875 6.8175 13.6325C7.1625 13.9775 7.59 14.15 8.1 14.15ZM3.85 10.1111V34.15V3.85001V10.1111Z" fill="black"/>
</svg>
