<svg xmlns="http://www.w3.org/2000/svg" height="48" viewBox="0 96 960 960" width="48"><path d="M177 952q-28.725 0-50.863-22.138Q104 907.725 104 879V273q0-28.725 22.137-50.862Q148.275 200 177 200h483q15.016 0 28.624 6.043Q702.232 212.087 712 222l122 122q9.913 9.768 15.957 23.376Q856 380.984 856 396v483q0 28.725-22.138 50.862Q811.725 952 783 952H177Zm606-553.779L657.779 273H177v606h606V398.221ZM479.824 818Q526 818 558.5 785.676q32.5-32.323 32.5-78.499Q591 661 558.677 628.5 526.353 596 480.176 596 434 596 401.5 628.324 369 660.647 369 706.823 369 753 401.324 785.5q32.323 32.5 78.5 32.5ZM262 479h302q15.3 0 25.65-10.35Q600 458.3 600 443v-85q0-15.3-10.35-25.65Q579.3 322 564 322H262q-15.3 0-25.65 10.35Q226 342.7 226 358v85q0 15.3 10.35 25.65Q246.7 479 262 479Zm-85-80.779V879 273v125.221Z"/></svg>