<svg width="48" height="48" viewBox="0 0 48 48" fill="none" xmlns="http://www.w3.org/2000/svg">
<path d="M12.65 43.25C11.3346 43.25 10.2141 42.7921 9.28845 41.8762C8.36282 40.9604 7.9 39.8517 7.9 38.55V10.9H7.35C6.69167 10.9 6.13542 10.6721 5.68125 10.2162C5.22708 9.76037 5 9.20204 5 8.54124C5 7.88041 5.22708 7.32499 5.68125 6.87499C6.13542 6.42499 6.69167 6.19999 7.35 6.19999H16.6C16.6 5.53332 16.8271 4.96665 17.2813 4.49999C17.7354 4.03332 18.2917 3.79999 18.95 3.79999H29.05C29.7042 3.79999 30.2677 4.03645 30.7406 4.50939C31.2135 4.98229 31.45 5.54582 31.45 6.19999H40.65C41.3083 6.19999 41.8646 6.4279 42.3188 6.88374C42.7729 7.3396 43 7.89794 43 8.55874C43 9.21957 42.7729 9.77499 42.3188 10.225C41.8646 10.675 41.3083 10.9 40.65 10.9H40.1V38.55C40.1 39.8517 39.6372 40.9604 38.7116 41.8762C37.786 42.7921 36.6654 43.25 35.35 43.25H12.65ZM12.65 10.9V38.55H35.35V10.9H12.65ZM17.7 32.75C17.7 33.2658 17.8895 33.7114 18.2684 34.0868C18.6474 34.4623 19.0974 34.65 19.6184 34.65C20.1395 34.65 20.5917 34.4623 20.975 34.0868C21.3583 33.7114 21.55 33.2658 21.55 32.75V16.65C21.55 16.1342 21.3522 15.6802 20.9566 15.2881C20.561 14.896 20.1026 14.7 19.5816 14.7C19.0605 14.7 18.6167 14.896 18.25 15.2881C17.8833 15.6802 17.7 16.1342 17.7 16.65V32.75ZM26.45 32.75C26.45 33.2658 26.6478 33.7114 27.0434 34.0868C27.439 34.4623 27.8974 34.65 28.4184 34.65C28.9395 34.65 29.3917 34.4623 29.775 34.0868C30.1583 33.7114 30.35 33.2658 30.35 32.75V16.65C30.35 16.1342 30.1572 15.6802 29.7715 15.2881C29.3858 14.896 28.9275 14.7 28.3965 14.7C27.8655 14.7 27.4083 14.896 27.025 15.2881C26.6417 15.6802 26.45 16.1342 26.45 16.65V32.75Z" fill="#DA0000"/>
</svg>
