<svg width="48" height="48" viewBox="0 0 48 48" fill="none" xmlns="http://www.w3.org/2000/svg">
<path d="M9.19785 39.0282H11.0587L32.9826 17.0478L31.1218 15.187L9.19785 37.1674V39.0282ZM39.7848 14.9261L33.2718 8.41303L35.2499 6.40668C35.879 5.77758 36.6515 5.46664 37.5674 5.47388C38.4833 5.48114 39.2812 5.8058 39.9609 6.44783L41.8283 8.28693C42.508 8.9478 42.8243 9.73258 42.7772 10.6413C42.7301 11.55 42.3955 12.3153 41.7736 12.9372L39.7848 14.9261ZM7.8555 42.3391C7.29397 42.3391 6.82079 42.1468 6.43595 41.7621C6.05112 41.3774 5.8587 40.9044 5.8587 40.3431V36.627C5.8587 36.3684 5.90617 36.1228 6.0011 35.8902C6.09604 35.6576 6.24567 35.4391 6.45 35.2348L31.1718 10.513L37.7131 16.9978L12.9913 41.7478C12.787 41.9522 12.5602 42.1018 12.3109 42.1967C12.0616 42.2917 11.8159 42.3391 11.5739 42.3391H7.8555ZM32.0805 16.1174L31.1218 15.187L32.9826 17.0478L32.0805 16.1174Z" fill="#0074D0"/>
</svg>
